<?xml version="1.0" encoding="utf-8"?>
<!-- Generator: Adobe Illustrator 16.0.0, SVG Export Plug-In . SVG Version: 6.00 Build 0)  -->
<!DOCTYPE svg PUBLIC "-//W3C//DTD SVG 1.1//EN" "http://www.w3.org/Graphics/SVG/1.1/DTD/svg11.dtd">
<svg version="1.1" id="Layer_1" xmlns="http://www.w3.org/2000/svg" xmlns:xlink="http://www.w3.org/1999/xlink" x="0px" y="0px"
	 width="651.97px" height="425.2px" viewBox="0 0 651.97 425.2" enable-background="new 0 0 651.97 425.2" xml:space="preserve">
<path fill="#ED6C34" d="M595.558,250.143c2.154,0.49,4.348,0.75,6.568,0.75c6.305,0,12.445-2.099,17.76-6.072
	c8.335-6.234,11.444-15.917,8.911-26.172c5.169-10.277,4.135-21.01-3.309-28.979c-1.371-1.457-3.188-3.024-5.527-4.384
	c-0.154-6.576-2.811-12.855-7.836-18.006c-5.247-5.382-11.919-8.228-19.294-8.228c-4.552,0-8.709,1.108-12.264,2.622
	c-1.899-0.891-3.991-1.649-6.24-2.173c6.672-5.562,7.937-14.13,6.833-21.206c10.523-10.079,16.625-24.461,8.032-36.514
	c-5.057-7.045-12.161-11.373-20.306-12.459c-2.039-8.313-7.075-17.146-17.613-23.03c-3.692-2.062-8.151-2.21-11.974-0.401
	c-5.777,2.736-14.581,10.236-18.551,23.176c-7.359,0.457-13.562,3.147-18.041,7.75c0.011-0.166,0.029-0.328,0.039-0.494
	c1.628-28.276-20.011-53.202-28.077-59.082c-3.146-2.294-7.046-3.007-10.659-2.173c-8.695-11.677-18.736-17.741-25.19-19.77
	c-4.302-1.351-8.994-0.393-12.421,2.536c-3.426,2.929-5.103,7.417-4.436,11.875c0.607,4.059,0.021,10.138-4.184,18.766
	c-2.958-2.129-6.755-2.981-10.483-2.153c-5.674,1.262-9.834,6.118-10.211,11.918c-0.265,4.076-2.525,8.602-5.145,13.844
	c-2.717,5.439-5.796,11.604-7.282,18.801c-2.03,9.825-1.241,18.086,1.354,25.123c-0.512-0.026-54.902-0.419-62.927-0.419
	c-1.448,0-2.938,0.034-4.394,0.072l-0.265,0.007c-0.882,0.022-1.762,0.046-2.623,0.046h-7.031c-1.097,0-2.235,0.035-3.404,0.081
	l-0.142,0.005c-0.434,0.017-0.884,0.039-1.35,0.039h-5.4c-4.745,0-9.354,1.126-13.486,3.201c-1.683,0.088-3.575,0.251-5.916,0.46
	c-0.866,0.078-2.067,0.189-2.799,0.241c-0.991,0.024-1.987,0.098-2.979,0.221c-1.329,0.165-3.486,0.495-3.486,0.495
	c-0.709,0.109-1.413,0.243-2.107,0.402c-6.846-1.86-13.162-2.265-17.355-2.265c-0.473,0-0.933,0.005-1.411,0.016
	c-3.727,0.087-5.705,0.178-6.723,0.225l-3.247,0.018c-3.284,0-6.532,0.549-9.609,1.59c-7.423-2.767-15.639-4.228-24.16-4.228
	c-10.227,0-20.353,2.174-29.402,6.301c-9.95-6.075-21.559-9.439-33.5-9.439c-6.468,0-12.819,0.94-18.876,2.795
	c-3.707,1.113-8.274,2.714-12.978,5.544c-8.185-3.204-17.527-4.949-26.649-4.949c-8.718,0-16.654,1.432-23.587,4.257l-0.161,0.066
	c-21.737,9.056-36.341,30.608-36.341,53.631c0,6.295,1.111,12.489,3.251,18.39c-2.871,4.628-4.507,10.082-4.507,15.889v0.394
	c-0.295,7.32,0.984,14.493,3.704,21.146c-6.002,5.575-9.667,13.515-9.667,22.062v16.223c-0.255,52.095-0.112,61.931,0.274,71.946
	c0.588,15.312,12.557,27.713,27.856,28.846c17.942,1.314,23.594,1.584,26.561,1.584c5.305,0,17.93,0.001,30.631-5.262
	c7.587,3.883,15.586,5.518,22.244,6.12c2.444,0.25,4.801,0.271,7.011,0.271c7.081,0,13.355-0.828,19.174-2.531
	c5.403-1.521,10.259-3.463,14.552-5.816c8.858,4.39,18.911,6.939,29.126,7.205c8.938,0.285,17.706-1.409,25.613-4.796
	c0.66,42.424,4.138,45.15,22.465,44.915c8.666-0.111,218.114-0.017,249.705-0.002c0.531,0.044,1.064,0.074,1.601,0.074
	c0.479,0,0.957-0.037,1.434-0.072c0.619,0,0.949,0,0.949,0l0.029-0.098c1.777-0.224,3.522-0.676,5.157-1.374
	c1.267-0.463,2.457-1.119,3.527-1.95l0.68-0.527c0.098-0.075,0.193-0.152,0.288-0.23c3.33-2.599,45.971-35.874,78.699-61.438
	c0.493,0.057,0.986,0.095,1.479,0.095c2.89,0,5.723-0.958,8.035-2.76l24.24-18.877c2.807-2.186,4.602-5.42,4.972-8.957
	c0.024-0.232,0.025-0.465,0.037-0.697c0.503-0.462,0.983-0.949,1.409-1.483l0.001,0.001c2.659-3.341,3.632-7.733,2.725-12.443
	c-0.853-4.284-3.01-7.71-4.627-9.774c-3.688-4.763-8.619-7.848-13.565-8.47c-1.634-0.202-3.247-0.122-4.786,0.206
	C603.981,282.229,593.365,271.785,595.558,250.143z"/>
<g>
	<g>
		<path fill="#FFFFFF" d="M614.565,199.951c-2.066-2.195-5.121-3.312-9.098-3.312c-1.689,0-3.525,0.192-5.542,0.594
			c1.32-1.587,2.621-3.407,3.56-5.369c2.521-5.231,1.795-10.121-2.101-14.113c-2.393-2.454-5.274-3.699-8.554-3.699
			c-5.708,0-10.935,3.852-12.675,5.274c-1.645-1.521-6.56-5.576-12.221-5.576c-3.108,0-5.932,1.205-8.362,3.583
			c-7.437,7.243-2.739,14.737,1.353,19.883c-2.304-0.56-4.735-0.959-7.094-0.959c-3.831,0-6.772,1.088-8.739,3.242
			c-5.364,5.85-0.395,13.346,2.678,16.866c-2.085,3.729-5.12,11.271,1.287,15.959c2.714,1.986,5.794,2.996,9.145,2.996
			c4.761,0,9.805-2.166,13.481-5.785c2.013-1.986,3.648-3.914,5.107-5.803c-0.167,4.47-1.202,12.072-5.413,21.533
			c-0.248,0.545-0.194,1.158,0.127,1.652c0.288,0.445,0.723,1.107,4.321,1.107c2.522,0,3.777-0.426,4.33-1.482
			c2.878-5.517,4.84-12.746,5.834-21.545c0.815,1.622,1.87,3.4,3.796,5.26c2.671,2.57,6.972,5.635,12.34,5.635
			c3.081,0,6.036-1.036,8.775-3.084c6.332-4.736,3.243-12.211,1.112-15.928C615.06,213.341,619.999,205.768,614.565,199.951z"/>
	</g>
</g>
<g>
	<g>
		<g>
			<path fill="#FFFFFF" d="M421.825,132.967c-7.151-14.884-3.341-23.413,2.155-31.449c6.018-8.8,7.571-17.511,7.571-17.511
				s4.732,6.154,2.841,15.777c8.36-9.309,9.938-24.139,8.675-29.816c18.901,13.206,26.977,41.804,16.092,62.998
				c57.895-32.756,14.401-81.771,6.83-87.292c2.523,5.521,3.003,14.866-2.096,19.403c-8.633-32.729-29.977-39.438-29.977-39.438
				c2.524,16.879-9.149,35.338-20.404,49.127c-0.398-6.729-0.816-11.374-4.354-17.814c-0.795,12.227-10.138,22.194-12.669,34.444
				C393.062,107.987,399.056,120.133,421.825,132.967L421.825,132.967z M421.825,132.967"/>
		</g>
	</g>
</g>
<g>
	<g>
		<path fill="#FFFFFF" d="M578.568,109.407c-8.592-11.975-22.07-5.563-22.07-5.563s4.052-17.394-11.601-26.133
			c0,0-13.12,6.213-13.139,25.671c0,0-15.427-5.021-21.283,4.625c-5.865,9.636,1.156,18.568,8.061,21.774
			c0,0,3.243-6.142,8.923-5.41c5.708,0.718,6.925,6.452,6.656,8.541c-0.26,2.088-2.608,6.736-7.826,6.062
			c-5.189-0.684-6.353-2.079-6.353-2.079s-3.571,8.384,1.71,12.165c5.269,3.751,13.627,1.334,13.627,1.334s5.501,15.97,8.358,14.784
			c4.512-1.847,8.012-14.371,8.012-14.371c3.08,1.564,9.075,2.904,14.209-1.254c4.373-3.483,1.854-11.547,1.854-11.547
			s-3.788,2.587-8.251,1.984c-4.467-0.584-6.852-4.27-6.35-8.235c0.496-3.922,4.614-7.315,8.817-6.77
			c4.149,0.51,7.726,6.035,7.726,6.035S585.074,118.533,578.568,109.407z"/>
	</g>
</g>
<g>
	<g>
		<g>
			<path fill="#FFFFFF" d="M497.068,397.014c-0.022,0.014-0.041,0.027-0.051,0.043l-0.68,0.528
				c-0.133,0.028-0.261,0.074-0.368,0.125c-2.601,1.288-5.954,0.521-7.738-1.774c-1.819-2.336-1.754-5.664,0.162-7.916
				c0.081-0.107,0.153-0.22,0.214-0.345l83.565-65.051c1.495,1.383,2.92,2.822,4.246,4.29c1.043,1.178,2.046,2.382,2.976,3.582
				c0.375,0.464,0.723,0.939,1.07,1.409C545.984,358.841,497.068,397.014,497.068,397.014L497.068,397.014z M497.068,397.014"/>
		</g>
	</g>
	<g>
		<path fill="#FFFFFF" d="M585.495,332.739c-0.547-0.872-1.078-1.661-1.607-2.434l-0.314-0.46c-0.161-0.226-0.312-0.463-0.49-0.698
			c-0.43-0.593-0.873-1.183-1.319-1.758c-0.975-1.266-2.037-2.524-3.136-3.762c-1.736-1.919-3.616-3.793-5.609-5.551
			c-8.21-7.25-17.554-11.848-26.319-12.94c-3.797-0.473-7.361-0.276-10.652,0.566c-0.826-11.105,5.38-23.403,16.246-31.857
			c9.017-7.015,19.771-10.339,29.514-9.129c0.97,0.122,1.936,0.296,2.87,0.506c-0.046,7.862,4.949,20.148,13.628,33.391
			c0.595,0.91,1.216,1.826,1.851,2.743c1.751,2.552,3.593,5.062,5.462,7.464c0.537,0.688,1.076,1.348,1.614,2.007l0.578,0.705
			c0.646,0.793,1.284,1.563,1.931,2.332L585.495,332.739z M585.495,332.739"/>
	</g>
	<g>
		<path fill="#FFFFFF" d="M613.963,304.899c-0.012,0.014-0.029,0.022-0.038,0.026c-0.059,0.048-0.126,0.094-0.175,0.14
			c-0.246,0.2-1.583,1.251-3.784,2.978c-0.353-0.434-0.705-0.868-1.056-1.32c-1.832-2.353-3.63-4.805-5.34-7.293
			c-0.308-0.443-0.608-0.888-0.905-1.333l2.783-2.166c0.521-0.134,0.915-0.404,1.062-0.524c0.113-0.084,0.343-0.104,0.622-0.067
			c1.157,0.142,3.1,1.273,4.821,3.494c1.102,1.406,1.875,2.981,2.14,4.321C614.271,304.09,614.146,304.667,613.963,304.899
			L613.963,304.899z M613.963,304.899"/>
	</g>
</g>
<path fill="#434A7E" d="M536.391,255.857c-0.289-4.936-4.388-8.802-9.33-8.802h-1.097c-5.291-0.599-11.237-0.997-18.038-1.205
	c7.731-4.442,12.732-11.596,13.991-20.263c0.702-4.375,1.122-9.672,1.122-14.169c0-4.454-0.472-9.631-0.928-14.639l-0.238-2.638
	c-0.215-2.405-1.326-4.58-3.077-6.14c1.96-1.747,3.113-4.26,3.113-6.968v-1.279c0.126-1.318,0.251-3.197,0.251-4.497
	c0-20.161-15.261-33.707-37.975-33.707c-2.552,0-4.792,0.147-7.289,0.48c-6.952,1.044-12.708,3.202-17.121,6.42
	c-0.94-3.243-3.609-5.837-7.027-6.568c-4.144-0.887-8.224-1.337-12.125-1.337c-4.528,0-8.563,0.373-12.7,1.174
	c-2.528,0.489-4.698,1.981-6.061,4.079c-0.364-0.338-0.756-0.648-1.169-0.924c-5.11-3.404-15.361-3.577-17.364-3.577
	c-2.649,0-5.896,0.141-9.895,1.183c-0.081,0.021-0.159,0.044-0.237,0.069c-1.363-0.738-2.879-1.125-4.428-1.125l-5.13,0.002
	c-3.857,0.095-6.362-0.05-8.495-0.174l-1.203-0.069c-0.155-0.008-0.313-0.012-0.468-0.012l-1.08,0.013
	c-1.237,0-1.955-0.069-2.787-0.148c-1.116-0.106-2.08-0.156-3.032-0.156c-1.517,0-3.072,0.125-4.898,0.391
	c-1.136,0.167-2.234,0.554-3.272,1.155c-10.791-1.222-22.245-1.378-31.027-1.378c-1.271,0-2.577,0.031-3.934,0.066
	c-1.125,0.029-2.25,0.058-3.349,0.058h-7.03c-0.84,0-1.712,0.032-2.706,0.07c-0.703,0.027-1.434,0.056-2.192,0.056h-5.399
	c-2.735,0-5.327,1.208-7.094,3.27c-1.034-0.082-2.104-0.125-3.16-0.128c-1.448-0.068-3.869,0.132-7.299,0.438l-0.101,0.009
	c-1.252,0.111-3.347,0.298-3.81,0.304c-0.38,0-0.768,0.024-1.154,0.071c-1.109,0.138-2.908,0.415-2.907,0.415
	c-2.125,0.326-4.063,1.386-5.489,2.949c-1.156-1.313-2.67-2.295-4.368-2.799c-5.208-1.542-10.219-1.773-12.743-1.773
	c-0.319,0-0.629,0.003-0.932,0.01c-3.401,0.079-5.189,0.16-6.302,0.209l-0.224,0.011c-0.335,0.016-0.566,0.028-0.788,0.028h-3.14
	c-2.516,0-4.962,1.037-6.713,2.844c-0.576,0.594-1.063,1.263-1.458,2.002c-6.719-4.833-15.763-7.483-25.599-7.483
	c-7.694,0-15.264,1.711-21.93,4.967l-0.653,0.343c-2.499,1.314-3.253,1.711-4.374,2.832c-0.183,0.185-0.36,0.376-0.52,0.568
	c-0.845,0.998-1.645,2.083-2.453,3.332c-8.061-9.542-20.225-15.18-32.971-15.18c-4.432,0-8.761,0.64-12.855,1.899
	c-3.375,1.014-7.31,2.431-10.883,5.252c-0.18,0.14-0.353,0.289-0.519,0.441c-1.704,1.554-3.383,3.553-4.917,5.846
	c-2.358-2.2-5.004-4.051-7.881-5.512c-0.135-0.07-0.272-0.134-0.411-0.197c-6.219-2.799-13.69-4.34-21.037-4.34
	c-4.142,0-10.238,0.473-15.774,2.728c-14.106,5.876-23.583,19.738-23.583,34.493c0,8.827,3.634,17.466,10.28,24.552
	c-1.187,0.121-2.396,0.287-3.725,0.509c-4.526,0.752-7.811,4.63-7.811,9.219l0.002,0.825c-0.441,8.259,2.377,15.951,8.15,22.246
	c2.96,3.225,6.702,6.017,11.02,8.245c-7.287,0.53-13.802,2.01-18.335,3.292c-4.004,1.135-6.801,4.833-6.801,8.993v16.276
	c-0.253,51.728-0.116,61.387,0.259,71.096c0.183,4.76,3.903,8.613,8.654,8.964c14.42,1.059,22.145,1.531,25.045,1.531
	c6.022,0,21.624,0,31.99-9.492c4.824,5.952,12.694,9.552,22.869,10.444c1.504,0.164,3.308,0.178,5.027,0.178
	c5.128,0,9.531-0.565,13.437-1.724c6.235-1.742,14.606-5.162,19.084-11.557c0.02-0.029,0.04-0.058,0.06-0.087
	c7.603,7.306,19.236,11.949,30.875,12.232c11.738,0.39,22.874-4.355,29.96-12.681c3.295,4.98,7.87,8.8,13.632,11.375
	c0.149,0.066,0.3,0.129,0.457,0.189c4.265,1.638,9.201,2.503,14.275,2.503c6.043,0,12.648-1.062,19.618-3.149
	c0.177-0.051,0.353-0.111,0.528-0.174c2.759-1.004,5.348-2.365,7.72-4.058c1.525,2.616,4.233,4.356,7.331,4.593
	c6.777,0.516,14.116,0.756,23.095,0.756c5.343,0,10.777-0.086,16.033-0.169l0.522-0.008c4.979-0.083,10.625-0.177,16.178-0.177
	c1.082,0,2.168-0.202,3.234-0.603c0.44,0.099,0.885,0.166,1.326,0.2c6.776,0.516,14.114,0.756,23.093,0.756
	c5.35,0,10.789-0.086,16.05-0.169l0.506-0.008c4.982-0.083,10.631-0.177,16.182-0.177c3.818,0,7.231-2.341,8.647-5.8
	c7.007,4.193,15.336,6.596,23.668,6.799c0.471,0.016,0.936,0.023,1.406,0.023c14.676,0,27.777-7.941,33.369-20.216
	c0.813-1.733,1.5-3.521,2.056-5.341c-0.02,1.308-0.034,2.572-0.034,3.763l0.002,5.866c-0.106,2.168-0.14,7.586,1.86,11.084
	c1.913,3.338,5.705,5.217,9.65,4.572c4.51-0.751,7.06-0.751,10.012-0.751h3.644c2.67,0,5.696,0,10.13-0.765
	c4.578-0.79,7.838-4.735,7.753-9.382c-0.581-31.987-0.84-49.062-0.874-57.658c0.024,0,0.048,0,0.069,0
	c0.258,0,1.704,0.029,4.855,0.604c2.484,0.445,5.054-0.129,7.103-1.589c2.044-1.462,3.434-3.723,3.812-6.206
	c0.636-4.196,0.985-9.332,0.985-14.46C536.659,261.468,536.515,257.959,536.391,255.857z"/>
<g>
	<g>
		<path fill="#FFFFFF" d="M115.978,178.166c-3.013,0.504-6.653,0.881-10.421,0.881c-3.39,0-7.032-0.251-10.799-1.382
			c1.131-5.148-2.888-8.413-6.654-8.413c-2.385,0-4.646,1.382-5.023,4.771c-0.502,1.382-0.376,2.387-0.25,3.14
			c0,0.126,0.125,0,0,0.252c1.38,3.891,4.018,4.645,6.654,5.021c8.665,1.13,17.956,7.031,22.979,13.436
			c3.264,4.393,5.146,10.043,5.146,14.94c0,4.269-1.003,8.664-2.887,12.682c-4.52,9.921-15.193,15.191-25.99,14.815
			c-15.445-0.376-32.521-10.17-31.517-26.367v-1.13c4.52-0.752,7.282-0.752,14.44-0.502c2.386,0.127,6.529,0.127,8.538,0.127
			c0.251,5.271,3.892,8.035,7.409,8.035c3.515,0,6.654-2.635,5.774-8.035c-0.878-7.032-8.538-8.54-14.564-9.668l-1.884-0.377
			c-3.893-0.753-7.157-2.513-9.417-4.394c-6.278-6.028-9.041-12.934-9.041-19.463c0-10.924,7.282-21.47,17.831-25.866
			c3.39-1.381,7.784-2.009,12.179-2.009c6.027,0,12.179,1.256,17.203,3.517c7.407,3.766,12.555,10.295,12.555,19.46
			c0,1.759-0.252,3.893-0.753,6.529H115.978z"/>
	</g>
	<g>
		<path fill="#FFFFFF" d="M143.971,170.382c-0.377,0.628-1.003,12.18-1.003,22.977c0,4.771,0.125,9.543,0.377,13.06
			c0.502,4.269,2.762,9.29,5.902,10.925c2.761,0.122,5.146-1.131,6.654-4.019h-0.125c1.004-2.135,1.13-4.646,1.13-7.157
			c0-1.757,0-3.767,0.502-5.902c3.516,0.504,6.152,0.504,8.663,0.377c3.642-0.125,7.534-0.125,11.678,1.005
			c1.128,3.266,1.505,6.152,1.505,9.166c0,14.44-11.552,27.625-27.372,28.252c-1.507,0.252-3.641,0.375-5.273,0.375
			c-11.677,0-24.232-5.023-25.488-17.579c-0.377-7.533-0.628-15.568-0.628-26.994c0-5.651,0-11.929,0.125-19.588
			c0-1.38,0.126-4.143,0.126-5.651c-0.251-2.51,0.502-6.277,1.506-8.663c1.381-3.641,3.893-7.911,6.78-10.547
			c2.386-1.882,5.273-2.889,7.786-3.641c3.265-1.003,6.654-1.506,10.17-1.506c17.328,0,32.646,13.183,32.646,29.631
			c0,3.014-0.502,6.153-1.757,9.542c-3.516,0.754-6.529,1.131-8.79,1.131c-3.516,0-8.036-0.629-13.184-1.632
			c0,0-0.252-3.392-0.377-4.772c-0.251-5.775-0.627-11.802-6.529-11.551c-0.125,0-0.377,0.126-0.879,0.126h0.125
			C146.734,167.997,144.348,168.625,143.971,170.382z"/>
	</g>
	<g>
		<path fill="#FFFFFF" d="M238.514,170.508c0.251,2.637,0.377,5.273,0.377,7.911c0,0.752-0.126,1.506-0.126,2.26v2.26
			c-0.251,4.143-0.251,8.162-0.251,12.18c0,4.52,0,8.915-0.377,13.56l-0.377,4.145c-0.377,5.774-1.757,11.929-5.147,17.328
			c-2.638,3.765-8.539,6.401-13.938,7.908c-3.391,1.006-7.031,1.381-10.923,1.381c-1.131,0-2.888,0-4.017-0.123
			c-7.158-0.631-14.817-3.016-18.081-9.166c-2.261-4.271-3.14-9.921-3.265-14.19c-0.126-1.129-0.252-3.138-0.252-4.018
			c-0.125-1.005-0.125-3.39-0.125-4.144c-0.377-6.152-0.628-13.686-0.628-19.712c0-3.894,0.125-7.66,0.376-11.553
			c0.376-7.156,2.261-16.197,7.784-22.726c0.126-0.126,0.377-0.251,2.763-1.506c5.148-2.512,11.3-3.894,17.579-3.894
			c7.784,0,15.318,2.009,20.719,6.153c2.887,2.635,4.896,5.398,5.775,7.91C237.51,165.361,238.137,167.871,238.514,170.508z
			 M219.052,184.822v-0.628c-0.125-1.506-0.377-4.52-0.501-6.529c-0.377-4.646-2.261-8.538-5.401-10.045
			c-2.385-1.004-5.649,0.126-7.911,1.632c-2.009,1.633-4.143,5.023-5.147,8.288c-1.005,4.394-1.255,9.292-1.255,14.062
			c0,2.134,0,4.271,0.125,6.405v-0.127c0.377,1.885,0.627,4.647,0.754,6.656c0,0.628,0.124,1.129,0.124,1.757
			c0.251,3.14,0.503,6.278,1.381,9.293v-0.127c1.633,3.393,4.898,5.149,8.036,5.149c2.637,0,5.525-1.257,7.659-3.642
			c1.758-2.262,1.884-3.391,1.884-6.279c0-0.627,0-2.134,0.126-3.138c0-0.377,0.125-1.13,0.125-1.633
			c0-0.879,0.125-1.633,0.125-2.384v-1.759c0-0.879,0.126-1.632,0.126-2.386v-6.028L219.052,184.822z"/>
	</g>
	<g>
		<path fill="#FFFFFF" d="M301.162,152.426c0.377,8.037,0.628,16.701,0.628,24.862c0,13.685-0.628,27.371-2.134,40.934
			c-1.382,11.173-9.417,19.965-22.351,21.218h0.125c-1.131,0.126-2.635,0.253-4.143,0.253c-14.189,0-29.508-6.656-30.135-21.096
			c0-9.04,0.124-18.333,0.251-27.497c0-2.009,0.125-6.028,0.125-8.162c0.124-6.655,0.25-13.687,0.25-19.713
			c0-3.767,0-8.287-0.125-12.18h3.14c1.004,0,2.134-0.125,7.534-0.251c3.515,0,7.409,0.377,10.799,1.382
			c-0.251,7.031-0.504,14.439-0.504,21.595c0,13.311,0.628,26.745,1.633,40.307v-0.127c1.005,3.393,3.264,5.149,5.524,5.149
			c2.511,0,5.273-2.26,6.153-5.776v0.125c0.503-11.803,0.628-24.611,0.752-36.539c0-2.763,0.127-5.398,0.127-8.037
			c0-5.524,0.126-11.301,0.25-16.573c0,0,1.633-0.253,2.638-0.377c1.884,0,9.292-0.879,10.924-0.753
			c3.014,0,5.775,0.251,7.533,1.254H301.162z"/>
	</g>
	<g>
		<path fill="#FFFFFF" d="M359.919,149.163c0.124,2.135,0.25,5.399,0.25,8.035c0,4.145-0.25,8.915-0.879,13.06
			c-2.761-0.502-5.022-0.752-6.528-0.752c-1.255,0-9.04-0.502-9.168,0.25c-0.123,0.879-0.251,2.762-0.251,7.408
			c0,8.037,0.251,24.861,0.878,59.517c-3.639,0.629-6.024,0.629-8.535,0.629h-3.643c-3.139,0-6.279,0-11.551,0.879
			c-0.503-0.879-0.753-4.021-0.628-6.153v-6.153c0-3.391,0.125-7.408,0.125-11.3c0-10.422-0.125-25.616-1.004-44.575
			c-2.262-1.131-5.65-0.501-8.914-0.501c-2.386,0-4.271,0-6.153-0.629c-0.503-1.004-0.88-6.152-0.88-11.802
			c0-2.762,0-6.278,0.126-9.042h5.399c1.757,0,3.39-0.125,4.897-0.125h7.031c2.386,0,4.896-0.124,7.282-0.124
			c10.296,0,20.844,0.25,30.513,1.38H359.919z"/>
	</g>
	<g>
		<path fill="#FFFFFF" d="M389.167,148.159v1.129c0,9.794-0.123,19.714-0.377,29.632c-0.25,9.919-0.5,21.345-0.5,31.265
			c0,8.789,0.25,17.581,0.754,26.242c-1.508,1.508-5.401,1.884-9.798,1.884c-2.132,0-4.518,0-6.651-0.123
			c-0.376,0-1.13-0.128-1.506-0.128c-2.385-0.125-4.521-0.25-8.665,0.879c0.501-7.279,0.751-15.944,0.751-23.229
			c0-4.896-0.122-9.667-0.25-14.438c0-2.386-0.125-4.897-0.125-7.282c-0.249-6.655-0.504-15.192-0.504-21.597
			c0-8.412,0.378-16.448,1.132-24.485c5.146-0.752,4.897,0.125,10.422,0c2.386,0.125,5.396,0.377,10.422,0.252H389.167z"/>
	</g>
	<g>
		<path fill="#FFFFFF" d="M432.107,237.684c-1.634-3.642-3.393-7.659-5.022-11.175c-4.144-9.043-8.036-17.579-10.421-23.982v24.106
			c0,3.894,0,7.784,0.124,10.676c-3.014,0.879-5.147,1.002-7.41,1.002c-2.508,0-5.147-0.501-7.783-0.501
			c-1.882-0.126-4.771-0.25-6.153-0.25v-9.419c0-8.036-0.125-15.444-0.25-22.851c-0.126-7.41-0.126-14.693-0.126-22.477
			c0-11.677,0.251-23.229,1.13-33.902c2.89-0.752,5.274-0.879,7.532-0.879c2.515,0,9.921,0.504,12.18,2.009
			c4.396,7.786,10.422,23.858,14.314,32.27c-0.251-7.157-0.376-24.61-0.123-34.027c3.891-0.754,7.408-1.004,10.923-1.004
			c3.264,0,6.653,0.377,10.171,1.129v89.022c-0.756,0-1.131,0.253-1.506,0.379c-0.63,0.25-1.886,0.501-4.398,0.501
			C444.035,238.563,433.235,237.431,432.107,237.684z"/>
	</g>
	<g>
		<path fill="#FFFFFF" d="M494.628,191.478c4.144,0,8.791,0.25,12.18,0.501c1.632,0.125,3.265,0.251,4.019,0.251l2.135,0.126
			c0.501,5.651,1.13,11.677,1.13,16.448c0,4.019-0.379,8.791-1.004,12.682c-1.133,7.787-6.404,12.931-13.311,15.443
			c-5.022,1.508-11.051,2.764-16.95,2.764c-3.766,0-7.658-0.628-10.924-1.884c-7.031-3.14-11.049-8.414-12.936-15.319
			c-0.499-1.882-1.127-5.4-1.506-8.789c0-0.251-0.123-0.754-1.379-22.477c0-2.009,0-4.017,0.124-6.403
			c0.126-4.897,0.376-11.803,1.255-16.574c0.879-5.022,3.142-11.051,8.164-14.816c3.39-2.51,8.034-4.018,13.058-4.771
			c1.884-0.251,3.765-0.377,5.901-0.377c16.07,0,28.627,8.288,28.627,24.359c0,1.005-0.124,2.888-0.25,4.019
			c0,0.125,0,1.632,0,1.758c-1.256,0.251-1.884,0.124-4.396,0.124h-4.771h-1.255c-2.636,0-4.771,0-9.164-0.501
			c-1.007-3.39-3.393-10.295-6.781-10.295c-2.262-0.126-4.27-0.754-6.279,1.255c-0.126,0.125-0.503,1.632-0.878,3.012
			c-1.634,5.401-2.386,14.316-2.386,23.354c0,4.019,0.124,8.914,0.502,12.682c0.376,3.642,1.254,8.791,3.39,10.673
			c0.754,0.503,1.505,0.878,2.011,1.005c2.008,0.252,4.894-0.377,6.779-1.131c1.13-0.504,2.258-1.757,2.762-4.017
			c0.375-1.256,1.256-6.028,1.004-6.782h-3.014c-2.386,0.127-5.273,0-7.156-0.754c-0.252-2.635-0.252-4.519-0.252-6.529v-1.38
			c0-1.382,0.252-1.758-0.25-6.278C485.714,192.858,489.604,191.478,494.628,191.478z"/>
	</g>
	<g>
		<path fill="#FFFFFF" d="M98.965,299.744c4.646,5.774,9.292,11.176,9.292,19.21c0,1.508-0.125,3.016-0.377,4.645
			c-2.888,16.324-17.201,19.337-32.018,19.337c-3.516,0-15.822-0.879-24.359-1.508c-0.376-9.793-0.501-19.586-0.252-70.688v-16.323
			c6.656-1.884,14.19-3.142,21.221-3.142c16.7,0,32.395,6.278,32.395,26.622c0,6.904-2.888,14.061-6.403,19.965v-0.128
			c-0.377,0.754-0.252,1.128,0.502,1.886V299.744z M85.029,316.442c0-1.758-0.377-3.389-0.753-4.645v0.126
			c-0.88-1.884-2.512-3.518-4.018-3.894c-2.136-0.503-4.145-0.626-5.902-0.754c-0.878,0-1.005,0.128-1.758,0
			c-0.628,2.637-1.256,6.153-1.256,9.166c0,2.512,0.503,5.399,1.382,7.033c4.52,0.123,8.79,0.25,11.426-2.888
			C84.777,319.705,85.029,318.202,85.029,316.442z M85.029,277.897c-1.382-2.637-2.889-3.768-4.771-4.271
			c-2.513-0.375-5.275-0.25-8.037-0.878c0.754,4.771,0.126,9.921,0.502,15.945h3.641c2.888,0,5.902-0.625,7.534-3.768
			C85.029,283.044,86.284,280.283,85.029,277.897z"/>
	</g>
	<g>
		<path fill="#FFFFFF" d="M166.51,275.133c0.252,2.636,0.377,5.273,0.377,7.911c0,0.754-0.125,1.506-0.125,2.26v2.259
			c-0.252,4.146-0.252,8.163-0.252,12.182c0,4.519,0,8.914-0.376,13.561l-0.376,4.144c-0.377,5.774-1.757,11.929-5.147,17.328
			c-2.637,3.766-8.539,6.401-13.938,7.908c-3.391,1.006-7.032,1.382-10.923,1.382c-1.131,0-2.888,0-4.019-0.124
			c-7.157-0.628-14.816-3.014-18.081-9.166c-2.26-4.271-3.139-9.921-3.264-14.188c-0.126-1.132-0.251-3.14-0.251-4.019
			c-0.125-1.007-0.125-3.393-0.125-4.144c-0.377-6.153-0.629-13.686-0.629-19.714c0-3.893,0.125-7.658,0.377-11.552
			c0.377-7.156,2.261-16.198,7.785-22.728c0.126-0.125,0.377-0.25,2.762-1.506c5.148-2.51,11.3-3.895,17.579-3.895
			c7.784,0,15.318,2.011,20.718,6.157c2.888,2.635,4.896,5.397,5.776,7.907C165.507,269.986,166.134,272.497,166.51,275.133z
			 M147.049,289.447v-0.628c-0.126-1.507-0.377-4.522-0.502-6.529c-0.377-4.645-2.261-8.536-5.4-10.044
			c-2.386-1.006-5.65,0.126-7.911,1.631c-2.009,1.635-4.143,5.023-5.147,8.288c-1.005,4.396-1.256,9.289-1.256,14.062
			c0,2.135,0,4.271,0.126,6.407v-0.129c0.377,1.886,0.627,4.647,0.754,6.657c0,0.628,0.125,1.129,0.125,1.758
			c0.251,3.137,0.501,6.277,1.38,9.293v-0.129c1.632,3.392,4.897,5.149,8.036,5.149c2.638,0,5.525-1.257,7.661-3.642
			c1.757-2.262,1.883-3.39,1.883-6.279c0-0.628,0-2.136,0.125-3.136c0-0.379,0.126-1.133,0.126-1.636
			c0-0.879,0.125-1.631,0.125-2.385v-1.758c0-0.88,0.125-1.632,0.125-2.386v-6.027L147.049,289.447z"/>
	</g>
	<g>
		<path fill="#FFFFFF" d="M226.772,282.791c-3.012,0.506-6.654,0.882-10.422,0.882c-3.39,0-7.03-0.253-10.797-1.383
			c1.129-5.149-2.889-8.413-6.655-8.413c-2.385,0-4.646,1.384-5.023,4.771c-0.502,1.385-0.377,2.387-0.25,3.142
			c0,0.123,0.125,0,0,0.251c1.381,3.893,4.019,4.644,6.654,5.021c8.665,1.13,17.956,7.033,22.979,13.437
			c3.265,4.393,5.146,10.043,5.146,14.943c0,4.264-1.003,8.66-2.887,12.679c-4.52,9.921-15.193,15.194-25.991,14.815
			c-15.445-0.375-32.521-10.169-31.517-26.366v-1.128c4.52-0.757,7.282-0.757,14.44-0.507c2.385,0.128,6.529,0.128,8.538,0.128
			c0.251,5.273,3.892,8.035,7.408,8.035c3.515,0,6.655-2.636,5.776-8.035c-0.879-7.032-8.538-8.539-14.565-9.668l-1.883-0.375
			c-3.893-0.757-7.157-2.515-9.417-4.396c-6.279-6.025-9.041-12.934-9.041-19.463c0-10.924,7.282-21.47,17.83-25.864
			c3.39-1.383,7.784-2.011,12.18-2.011c6.026,0,12.179,1.255,17.202,3.519c7.407,3.764,12.555,10.293,12.555,19.459
			c0,1.759-0.251,3.893-0.752,6.528H226.772z"/>
	</g>
	<g>
		<path fill="#FFFFFF" d="M269.332,296.104c4.143,0,8.789,0.25,12.178,0.5c1.633,0.125,3.266,0.251,4.02,0.251l2.133,0.127
			c0.504,5.651,1.13,11.676,1.13,16.447c0,4.019-0.376,8.79-1.003,12.684c-1.131,7.785-6.403,12.929-13.31,15.442
			c-5.023,1.508-11.049,2.765-16.951,2.765c-3.766,0-7.659-0.63-10.923-1.886c-7.031-3.14-11.049-8.413-12.933-15.317
			c-0.501-1.884-1.129-5.401-1.506-8.79c0-0.25-0.125-0.754-1.381-22.475c0-2.011,0-4.02,0.125-6.405
			c0.126-4.897,0.377-11.802,1.256-16.572c0.878-5.024,3.14-11.051,8.162-14.818c3.389-2.51,8.036-4.018,13.058-4.771
			c1.884-0.253,3.767-0.376,5.902-0.376c16.071,0,28.628,8.287,28.628,24.36c0,1.003-0.126,2.886-0.253,4.017
			c0,0.126,0,1.633,0,1.758c-1.255,0.253-1.881,0.126-4.394,0.126h-4.772h-1.255c-2.637,0-4.77,0-9.166-0.501
			c-1.005-3.393-3.391-10.297-6.78-10.297c-2.26-0.126-4.269-0.754-6.279,1.254c-0.125,0.128-0.501,1.635-0.878,3.014
			c-1.632,5.4-2.386,14.315-2.386,23.355c0,4.018,0.125,8.915,0.501,12.683c0.377,3.642,1.256,8.788,3.391,10.672
			c0.754,0.502,1.507,0.878,2.01,1.006c2.009,0.25,4.896-0.379,6.78-1.133c1.129-0.502,2.259-1.757,2.761-4.017
			c0.377-1.258,1.256-6.029,1.005-6.78h-3.014c-2.386,0.126-5.274,0-7.156-0.755c-0.252-2.638-0.252-4.519-0.252-6.529v-1.379
			c0-1.382,0.252-1.757-0.251-6.279C260.417,297.483,264.308,296.104,269.332,296.104z"/>
	</g>
	<g>
		<path fill="#FFFFFF" d="M349.934,330.506c0,3.768-0.375,7.785-1.38,11.428c-18.333,0-36.915,1.002-55.122-0.378
			c0.127-6.403-0.754-46.709-0.754-54.995c0-10.421,0.253-21.471,0.881-32.021c17.703-0.501,40.556-1.883,55.747-0.501
			c1.132,6.029,0,12.305,0,18.583c-6.402,1.382-11.802,1.632-16.823,1.632l-16.323,0.125c-0.252,2.387-0.629,7.157-0.629,9.796
			c0,1.63,0.128,3.388,0.754,5.272l8.288-1.004c1.382,0,3.517,0.126,5.273,0.25c0.375,0,1.38,0.126,1.631,0.126
			c0.628,3.642,0.755,6.152,0.379,18.207c-4.02,1.13-7.787,1.13-10.801,1.13c-2.385,0-3.64-0.376-4.394,0.127l-0.502,6.528
			c0,3.015,0.125,6.026,0.502,8.538c8.536,0,16.825,0.752,25.364,0.752c1.882,0,5.649-0.125,7.658-0.25
			C349.811,326.741,349.934,328.623,349.934,330.506z"/>
	</g>
	<g>
		<path fill="#FFFFFF" d="M410.323,330.506c0,3.768-0.378,7.785-1.379,11.428c-18.336,0-36.916,1.002-55.123-0.378
			c0.126-6.403-0.754-46.709-0.754-54.995c0-10.421,0.251-21.471,0.88-32.021c17.703-0.501,40.555-1.883,55.748-0.501
			c1.13,6.029,0,12.305,0,18.583c-6.405,1.382-11.802,1.632-16.824,1.632l-16.324,0.125c-0.253,2.387-0.628,7.157-0.628,9.796
			c0,1.63,0.126,3.388,0.754,5.272l8.286-1.004c1.383,0,3.517,0.126,5.273,0.25c0.376,0,1.383,0.126,1.634,0.126
			c0.628,3.642,0.752,6.152,0.377,18.207c-4.021,1.13-7.785,1.13-10.799,1.13c-2.386,0-3.643-0.376-4.394,0.127l-0.504,6.528
			c0,3.015,0.126,6.026,0.504,8.538c8.537,0,16.822,0.752,25.361,0.752c1.884,0,5.649-0.125,7.661-0.25
			C410.198,326.741,410.323,328.623,410.323,330.506z"/>
	</g>
	<g>
		<path fill="#FFFFFF" d="M468.827,282.791c-3.014,0.506-6.653,0.882-10.421,0.882c-3.391,0-7.029-0.253-10.797-1.383
			c1.129-5.149-2.891-8.413-6.654-8.413c-2.387,0-4.649,1.384-5.025,4.771c-0.502,1.385-0.375,2.387-0.249,3.142
			c0,0.123,0.124,0,0,0.251c1.382,3.893,4.018,4.644,6.652,5.021c8.665,1.13,17.958,7.033,22.979,13.437
			c3.265,4.393,5.148,10.043,5.148,14.943c0,4.264-1.006,8.66-2.891,12.679c-4.519,9.921-15.193,15.194-25.989,14.815
			c-15.444-0.375-32.52-10.169-31.516-26.366v-1.128c4.518-0.757,7.282-0.757,14.438-0.507c2.387,0.128,6.53,0.128,8.537,0.128
			c0.254,5.273,3.894,8.035,7.411,8.035c3.515,0,6.653-2.636,5.774-8.035c-0.878-7.032-8.536-8.539-14.565-9.668l-1.884-0.375
			c-3.894-0.757-7.157-2.515-9.416-4.396c-6.277-6.025-9.042-12.934-9.042-19.463c0-10.924,7.284-21.47,17.832-25.864
			c3.39-1.383,7.783-2.011,12.179-2.011c6.026,0,12.179,1.255,17.203,3.519c7.408,3.764,12.555,10.293,12.555,19.459
			c0,1.759-0.252,3.893-0.754,6.528H468.827z"/>
	</g>
	<g>
		<path fill="#FFFFFF" d="M527.459,253.789c0.123,2.136,0.252,5.4,0.252,8.035c0,4.144-0.252,8.916-0.88,13.06
			c-2.764-0.505-5.021-0.754-6.528-0.754c-1.256,0-9.042-0.504-9.167,0.249c-0.126,0.882-0.253,2.762-0.253,7.41
			c0,8.036,0.253,24.859,0.881,59.516c-3.642,0.629-6.026,0.629-8.539,0.629h-3.643c-3.137,0-6.275,0-11.552,0.879
			c-0.501-0.879-0.75-4.021-0.627-6.152v-6.154c0-3.389,0.126-7.408,0.126-11.3c0-10.422-0.126-25.615-1.005-44.574
			c-2.258-1.13-5.651-0.502-8.916-0.502c-2.385,0-4.267,0-6.15-0.628c-0.503-1.005-0.877-6.153-0.877-11.805
			c0-2.761,0-6.278,0.122-9.04h5.399c1.757,0,3.393-0.124,4.898-0.124h7.029c2.387,0,4.9-0.126,7.286-0.126
			c10.293,0,20.843,0.25,30.508,1.382H527.459z"/>
	</g>
</g>
<g>
	<path fill="#FFFFFF" d="M253.531,393.485c-1.282-2.601-4.871-9.265-7.764-15.381c-0.513-1.136-0.623-1.647-0.732-1.208
		c0,0.842,0.037,4.32,0.037,13.146v0.952c0,0.915,0,1.794,0.037,2.49c-0.439,0.11-0.806,0.146-1.245,0.11
		c-0.769,0-1.575-0.146-2.417-0.146v-2.564c0-4.65-0.11-8.643-0.11-13.22c0-3.369,0.073-6.702,0.33-9.814
		c0.366-0.073,0.806-0.073,1.355-0.036c0.549,0.036,1.868,0.146,1.868,0.256c0.623,1.538,1.135,2.49,2.307,4.725
		c3.113,5.639,6.738,13.952,6.189,13.146c0.073-2.014-0.183-5.896-0.183-7.397c-0.037-3.516-0.146-6.042-0.183-7.8
		c-0.037-1.465,0-1.941,0-3.113c0.586-0.073,1.208-0.109,1.831-0.109c0.659,0.036,1.208,0.072,1.758,0.183v11.792
		c0.037,2.051,0.037,4.175,0.037,6.262c0,1.429-0.037,2.711-0.037,4.065c-0.073,0.915-0.037,1.868,0.037,2.93v0.732H253.531z"/>
	<path fill="#FFFFFF" d="M265.285,374.662c0.989,0.109,1.831-0.037,2.856,0.037c1.575,0.146,3.04,0.586,4.065,1.574
		c1.392,0.916,1.392,4.028,1.501,7.251c-0.11,2.856-0.22,7.653-1.172,8.606c-1.685,2.38-5.676,1.611-8.496,1.611
		c-6.335-1.1-4.614-7.91-5.017-12.158c0-1.539,0.037-2.637,0.769-4.798C260.488,375.285,262.978,374.662,265.285,374.662z
		 M262.209,383.195c-0.037,1.135,0.073,2.6,0.146,4.431c0.146,2.161,1.501,2.673,2.637,2.894c1.941,0.293,4.761,0.183,5.347-2.088
		c0.073-0.477,0.146-0.952,0.146-1.502c0.183-3.479,1.245-9.558-5.054-8.752c-1.208,0.184-2.051,0.623-2.527,1.209
		C262.209,380.229,262.172,381.584,262.209,383.195z"/>
	<path fill="#FFFFFF" d="M281.69,374.662c0.989,0.109,1.831-0.037,2.856,0.037c1.575,0.146,3.04,0.586,4.065,1.574
		c1.392,0.916,1.392,4.028,1.501,7.251c-0.11,2.856-0.22,7.653-1.172,8.606c-1.685,2.38-5.676,1.611-8.496,1.611
		c-6.335-1.1-4.614-7.91-5.017-12.158c0-1.539,0.037-2.637,0.769-4.798C276.893,375.285,279.383,374.662,281.69,374.662z
		 M278.614,383.195c-0.037,1.135,0.073,2.6,0.146,4.431c0.146,2.161,1.501,2.673,2.637,2.894c1.941,0.293,4.761,0.183,5.347-2.088
		c0.073-0.477,0.146-0.952,0.146-1.502c0.183-3.479,1.245-9.558-5.054-8.752c-1.208,0.184-2.051,0.623-2.527,1.209
		C278.614,380.229,278.578,381.584,278.614,383.195z"/>
	<path fill="#FFFFFF" d="M297.363,375.834c1.867-0.623,5.054-0.623,5.054-0.477c0,1.979-0.073,3.076,0,4.139
		c-0.439-0.184-0.806-0.293-1.245-0.402c-1.685-0.33-2.71-0.184-3.992,0.109c-1.282,0.33-1.758,0.732-1.721,2.71
		c0.11,3.772,0.146,7.471,0.146,11.39v0.146c-1.062,0.293-1.758,0.072-3.259,0.146c0-6.006-0.22-11.902-0.037-18.348
		c0.732,0.073,3.296-0.109,3.296,0.037c0,0.805,0.037,0.586,0.037,1.244C295.825,376.42,296.667,376.054,297.363,375.834z"/>
	<path fill="#FFFFFF" d="M315.673,367.814c0.036-0.146,1.794-0.293,3.187-0.11v2.417c0,8.166,0.402,16.297,0.219,23.328
		c-0.988,0.072-2.307,0.146-3.405,0c-0.11-0.11,0.11-1.172-0.22-2.234c-0.293,0.695-1.172,1.685-2.088,1.867
		c-1.135,0.367-2.16,0.403-3.076,0.293c-5.529-0.402-6.042-5.383-6.152-10.326c0-3.662,0.77-6.849,3.699-7.617
		c1.721-0.477,3.809-0.477,5.236-0.184c1.648,0.22,2.564,1.648,2.601,1.904c-0.036-4.028-0.073-5.529-0.036-6.006
		c0.036-0.402-0.037-1.978,0.036-2.93V367.814z M307.066,384.184c0.184,4.943,1.648,6.152,4.541,6.152
		c3.699,0,4.029-2.82,4.029-6.555c-0.037-3.443-0.184-5.787-3.516-5.97c-3.04-0.22-4.725,0.915-4.944,3.955
		C307.066,382.572,307.066,383.378,307.066,384.184z"/>
	<path fill="#FFFFFF" d="M327.023,389.859c2.454-6.957,3.553-10.803,4.358-14.685c0.439,0.036,0.952,0,1.722-0.036
		c0.769-0.037,1.391-0.037,1.94,0.072c0.586,2.93,1.136,6.592,3.626,14.393c1.318-5.018,2.344-11.426,3.186-14.355
		c0.988-0.037,1.978-0.146,3.442-0.037c-2.344,8.167-2.38,9.998-4.577,18.311c-0.55,0.11-1.1,0.146-1.539,0.11
		c-0.805,0-1.758-0.036-2.6-0.036c-0.842-3.333-2.014-7.691-3.589-12.744c-1.392,4.357-2.526,8.752-3.882,12.707
		c-1.318,0.146-3.26,0.037-4.578,0.037c-1.025-5.75-2.307-12.086-3.809-18.421c1.246,0.11,2.49,0,3.662,0.11
		C325.156,379.862,325.633,383.854,327.023,389.859z"/>
	<path fill="#FFFFFF" d="M351.082,375.175c-0.036,5.896-0.402,12.158-0.036,18.2c-0.879,0.221-3.112,0-3.589,0.146
		c0.073-2.123,0.037-4.32,0.037-6.518c0-1.025,0-2.051,0-3.076c-0.074-2.857-0.146-6.006,0.146-8.899v-0.036
		c0.402-0.074,1.318,0.072,3.441,0.072V375.175z M351.046,372.025c-0.659,0.33-2.271,0.109-3.405,0.146
		c0-1.428-0.184-2.82-0.146-5.054c1.135,0.036,2.307,0.073,3.441,0.073C350.936,367.887,351.01,370.268,351.046,372.025z"/>
	<path fill="#FFFFFF" d="M359.027,375.175c0.293,2.38-0.109,6.885,0.074,8.679c0,4.688,0.439,8.387-0.55,13.258
		c-1.245,2.966-6.152,3.405-10.034,3.223c-0.293-1.172-0.109-2.49,0-3.333c0.952,0.073,4.797,0.073,6.519-1.208
		c1.318-2.564,0.586-10.035,0.879-15.564c0-1.648,0-3.332-0.036-4.98C357.014,375.321,358.223,375.064,359.027,375.175z
		 M359.064,371.879c-0.33,0.477-1.904,0.256-3.332,0.22c0-1.318-0.184-2.747-0.146-4.98c1.135,0.036,2.233,0.073,3.369,0.073
		C358.955,367.814,359.064,370.414,359.064,371.879z"/>
	<path fill="#FFFFFF" d="M364.996,380.924c4.064-3.002,5.493-4.797,7.287-6.371c1.209,0.256,3.113,0.036,3.992,0.109
		c-4.504,3.882-4.321,4.395-8.898,8.24c4.943,5.09,6.042,6.701,9.229,10.583c-1.062,0-2.674,0.257-3.992,0.073
		c-2.124-2.453-2.746-3.955-7.617-8.35c0,1.025,0.109,3.882,0.073,5.2c0,1.062-0.036,1.868-0.036,3.04
		c-0.843-0.037-2.271,0.146-3.26,0.036c-0.33-9.082,0.037-17.688,0-26.587c0.916,0,2.307-0.109,3.223-0.037v6.702
		c0,0.843,0,1.94-0.037,3.259C364.959,378.471,364.887,380.082,364.996,380.924z"/>
	<path fill="#FFFFFF" d="M379.388,384.879c0,0.843-0.659,5.201,3.735,5.566c3.442,0.293,4.468-1.465,4.139-3.845
		c1.281-0.22,2.38-0.036,3.552-0.073c0.036,2.417-0.036,4.064-1.025,5.713c-1.575,2.417-7.983,1.795-8.423,1.611
		c-4.139-0.659-5.457-6.006-5.236-10.767c0.146-1.794,0.219-3.479,0.805-5.091c1.282-2.893,5.566-3.955,9.046-3.076
		c4.541,0.77,5.2,4.98,4.907,9.082c-0.439,0.146-2.197,0.293-4.102,0.367c-1.318,0.072-5.018,0-6.043-0.037
		c-0.622,0-1.062-0.037-1.354-0.109V384.879z M384.222,377.115c-3.442,0-4.358,1.648-4.651,3.809
		c-0.183,1.355-0.183,1.393,4.469,1.282c2.6,0,3.516,0,3.955-0.036c0.402-0.037,0.293-0.221,0.293-0.696
		c-0.037-1.429-0.696-3.076-2.088-3.955C385.467,377.189,385.064,377.115,384.222,377.115z"/>
	<path fill="#FFFFFF" d="M398.025,375.834c1.868-0.623,5.055-0.623,5.055-0.477c0,1.979-0.074,3.076,0,4.139
		c-0.439-0.184-0.807-0.293-1.246-0.402c-1.684-0.33-2.709-0.184-3.991,0.109c-1.282,0.33-1.758,0.732-1.722,2.71
		c0.11,3.772,0.146,7.471,0.146,11.39v0.146c-1.062,0.293-1.758,0.072-3.259,0.146c0-6.006-0.22-11.902-0.036-18.348
		c0.732,0.073,3.295-0.109,3.295,0.037c0,0.805,0.037,0.586,0.037,1.244C396.488,376.42,397.33,376.054,398.025,375.834z"/>
	<path fill="#FFFFFF" d="M412.6,375.321c2.637-0.329,4.578,0.11,5.822,1.172c1.539,1.392,0.439,11.901,0.77,16.919
		c-1.281,0.184-2.16,0.184-3.149,0.146c-0.036-0.549-0.073-1.209-0.073-1.904v-2.197c0-1.281,0-3.846,0-7.178
		c-0.037-1.172-0.293-2.49-1.099-3.039c-0.22-0.146-0.55-0.221-0.879-0.293c-2.308-0.586-4.798,0.036-5.31,2.709
		c-0.184,0.989-0.257,2.125-0.257,3.333c0.036,2.233,0.22,4.98,0.036,8.276v0.146c-1.501,0.402-1.281,0.037-3.112,0.184
		c0-6.006-0.146-20.143,0-26.588c0.769,0.074,1.099,0.11,1.831,0.074c0.366,0,1.392-0.146,1.392,0.036
		c0.073,0.329,0.073,2.344,0.073,4.468v2.271c0,1.282,0,2.71,0,3.259C409.486,376.383,410.365,375.468,412.6,375.321z"/>
	<path fill="#FFFFFF" d="M427.576,374.662c0.989,0.109,1.832-0.037,2.857,0.037c1.574,0.146,3.039,0.586,4.064,1.574
		c1.392,0.916,1.392,4.028,1.502,7.251c-0.11,2.856-0.221,7.653-1.172,8.606c-1.686,2.38-5.677,1.611-8.496,1.611
		c-6.336-1.1-4.615-7.91-5.018-12.158c0-1.539,0.037-2.637,0.77-4.798C422.779,375.285,425.27,374.662,427.576,374.662z
		 M424.5,383.195c-0.036,1.135,0.074,2.6,0.146,4.431c0.146,2.161,1.502,2.673,2.637,2.894c1.941,0.293,4.762,0.183,5.348-2.088
		c0.072-0.477,0.146-0.952,0.146-1.502c0.183-3.479,1.244-9.558-5.055-8.752c-1.208,0.184-2.051,0.623-2.526,1.209
		C424.5,380.229,424.464,381.584,424.5,383.195z"/>
	<path fill="#FFFFFF" d="M446.473,392.57c-3.004,1.062-6.043,1.135-7.545-0.33c-1.025-0.916-0.915-3.625-0.951-7.141
		c0.072-3.406,0.256-7.324,0.109-9.852c1.099-0.109,1.904-0.073,3.003-0.073c0.183,2.051,0,5.2,0.11,7.69
		c0.036,0.916,0.036,2.381,0.146,4.102c0.109,1.648,0.622,2.381,1.758,2.674c3.809,0.622,5.822-1.282,5.859-4.248
		c0.036-1.758-0.146-5.348-0.184-7.105c0-0.951,0.037-1.904,0.073-2.819v-0.146c1.062-0.293,1.575-0.146,3.076-0.257
		c0,6.006,0.22,11.902,0.036,18.348c-0.879,0-1.135,0.037-1.794,0.109c-0.329,0-1.392,0.184-1.392-0.036
		c-0.073-0.915-0.037-1.429-0.073-1.94C448.449,391.691,447.863,392.24,446.473,392.57z"/>
	<path fill="#FFFFFF" d="M460.9,374.003c0,0.622,0.036,1.318,0.036,2.051c1.501-0.036,3.296-0.11,5.896-0.257
		c0.403,0.586,0.11,2.015,0.146,3.113c-2.014,0-3.991,0-5.969-0.037v5.604c0,3.039-0.037,3.992,0.366,4.797
		c0.915,1.172,4.798,1.062,5.603,1.025c0.146,0.989,0.293,2.271,0,3.187c-1.062,0.036-2.233,0.073-3.516,0.036
		c-2.783-0.146-4.87-0.805-5.42-3.479c-0.365-3.406-0.439-7.031-0.402-11.023c-0.659,0.074-3.003,0-3.882,0
		c0.036-0.988,0.073-1.977,0.11-3.002c0.805,0.072,3.223,0.072,3.845,0.072c0-0.951-0.036-2.562-0.036-3.845
		c0-1.501-0.037-2.856,0.072-3.882c1.062-0.109,2.088,0.146,3.15,0.037V374.003z"/>
</g>
</svg>
